<svg id="Layer_1" data-name="Layer 1" xmlns="http://www.w3.org/2000/svg" xmlns:xlink="http://www.w3.org/1999/xlink" viewBox="0 0 499 441"><defs><style>.cls-1{fill:#98c1d9;}.cls-2{fill:#303c42;}.cls-3,.cls-5{fill:#5075a5;}.cls-4{fill:none;stroke-width:12px;}.cls-4,.cls-5{stroke:#303c42;stroke-linecap:round;stroke-miterlimit:10;}.cls-5{stroke-width:10px;}.cls-6{fill:#42618a;}.cls-7{fill:url(#linear-gradient);}.cls-8{fill:#4cc9e9;}.cls-9{fill:#3281aa;}.cls-10{fill:url(#linear-gradient-2);}.cls-11{opacity:0.2;fill:url(#linear-gradient-5);}</style><linearGradient id="linear-gradient" x1="-257.34" y1="743.27" x2="-257.52" y2="743.23" gradientTransform="matrix(403.97, 0, 0, -220.53, 104369.69, 164125.58)" gradientUnits="userSpaceOnUse"><stop offset="0" stop-color="#4cc9e9"/><stop offset="1" stop-color="#3f8ac0"/></linearGradient><linearGradient id="linear-gradient-2" x1="-259.76" y1="756.28" x2="-259.54" y2="756.28" gradientTransform="matrix(-44.25, 0, 0, 49.94, -11115.94, -37540.18)" gradientUnits="userSpaceOnUse"><stop offset="0" stop-color="#2f6a94"/><stop offset="1" stop-color="#44a2cf" stop-opacity="0"/></linearGradient><linearGradient id="linear-gradient-5" x1="249.13" y1="-0.5" x2="249.13" y2="441.9" gradientUnits="userSpaceOnUse"><stop offset="0" stop-color="#fff"/><stop offset="0.13" stop-color="#fbfbfb"/><stop offset="0.26" stop-color="#efefef"/><stop offset="0.38" stop-color="#dcdcdc"/><stop offset="0.5" stop-color="silver"/><stop offset="0.63" stop-color="#9d9d9d"/><stop offset="0.75" stop-color="#717171"/><stop offset="0.87" stop-color="#3d3d3d"/><stop offset="0.99" stop-color="#030303"/><stop offset="1"/></linearGradient></defs><rect class="cls-1" x="6" y="5.5" width="467" height="429" rx="54.06"/><path class="cls-2" d="M418.94,11.5A48.11,48.11,0,0,1,467,59.56V380.44a48.11,48.11,0,0,1-48.06,48.06H60.06A48.11,48.11,0,0,1,12,380.44V59.56A48.11,48.11,0,0,1,60.06,11.5H418.94m0-12H60.06A60.06,60.06,0,0,0,0,59.56V380.44A60.06,60.06,0,0,0,60.06,440.5H418.94A60.06,60.06,0,0,0,479,380.44V59.56A60.06,60.06,0,0,0,418.94-.5Z"/><path class="cls-3" d="M418.79,10.5H368c26.83,0,48.58,23,48.58,51.29V378.21c0,28.33-21.75,51.29-48.58,51.29h50.79c26.83,0,48.59-23,48.59-51.29V61.79C467.38,33.46,445.62,10.5,418.79,10.5Z"/><line class="cls-4" x1="13" y1="36.5" x2="24" y2="36.5"/><line class="cls-4" x1="456" y1="36.5" x2="467" y2="36.5"/><line class="cls-4" x1="56" y1="36.5" x2="104" y2="36.5"/><line class="cls-4" x1="136" y1="36.5" x2="184" y2="36.5"/><line class="cls-4" x1="216" y1="36.5" x2="264" y2="36.5"/><line class="cls-4" x1="296" y1="36.5" x2="344" y2="36.5"/><line class="cls-4" x1="376" y1="36.5" x2="424" y2="36.5"/><line class="cls-4" x1="13" y1="405.5" x2="24" y2="405.5"/><line class="cls-4" x1="456" y1="405.5" x2="467" y2="405.5"/><line class="cls-4" x1="56" y1="405.5" x2="104" y2="405.5"/><line class="cls-4" x1="136" y1="405.5" x2="184" y2="405.5"/><line class="cls-4" x1="216" y1="405.5" x2="264" y2="405.5"/><line class="cls-4" x1="296" y1="405.5" x2="344" y2="405.5"/><line class="cls-4" x1="376" y1="405.5" x2="424" y2="405.5"/><path class="cls-5" d="M352.53,269.5h0a49,49,0,0,1,0-98h121A20.5,20.5,0,0,1,494,192v57a20.5,20.5,0,0,1-20.5,20.5h-120"/><path class="cls-6" d="M472.75,176.5H430c8.87,0,16.07,6.88,16.07,15.38v57.24c0,8.5-7.2,15.38-16.07,15.38h42.75c8.87,0,16.07-6.88,16.07-15.38V191.88C488.82,183.38,481.62,176.5,472.75,176.5Z"/><path class="cls-7" d="M410.76,206.66a18.88,18.88,0,0,0-24.86,1.86l-4.31,4.3,7.64,7.65,4.43-4.43a8,8,0,0,1,10.37-.92,7.83,7.83,0,0,1,0,12.57,8,8,0,0,1-10.37-.92l-5.11-5.11-.25-.26-7.65-7.64-.25-.25-9-9a23.83,23.83,0,0,0-16.91-7H336.65a6.08,6.08,0,0,0-6.07,6.09v18.59a23.87,23.87,0,0,0,8.51,17.55c9.55,8.06,23.8,7.08,32.65-1.76l8.91-8.92,5.25,5.25a18.9,18.9,0,0,0,24.86,1.86,18.65,18.65,0,0,0,0-29.5Zm-47,24a13.07,13.07,0,0,1-22.34-9.25h0v-9.51A3.62,3.62,0,0,1,345,208.3h9.38a13.08,13.08,0,0,1,9.34,3.82L373,221.4Z"/><path class="cls-8" d="M360.64,224.58v-6.35a1.72,1.72,0,1,1,3.43,0v6.35a1.72,1.72,0,1,1-3.43,0Zm-13.48,0v-6.35a1.72,1.72,0,1,1,3.43,0v6.35a1.72,1.72,0,1,1-3.43,0Z"/><path class="cls-9" d="M353.9,227.36v-11.9a1.72,1.72,0,1,1,3.43,0v11.9a1.71,1.71,0,0,1-.86,1.48,1.69,1.69,0,0,1-1.71,0A1.71,1.71,0,0,1,353.9,227.36Z"/><path class="cls-8" d="M402,223.1v-3.39a.91.91,0,1,1,1.82,0v3.39a.91.91,0,1,1-1.82,0Zm-7.17,0v-3.39a.91.91,0,1,1,1.82,0v3.39a.91.91,0,1,1-1.82,0Z"/><path class="cls-9" d="M398.45,224.57v-6.34a.92.92,0,0,1,1.83,0v6.34a.93.93,0,0,1-.45.83.91.91,0,0,1-.93,0,.93.93,0,0,1-.45-.83Z"/><rect class="cls-10" x="368.66" y="223.21" width="9.58" height="10.81" transform="translate(-52.27 331.03) rotate(-45)"/><path class="cls-7" d="M410.76,206.66a18.88,18.88,0,0,0-24.86,1.86l-4.31,4.3,7.64,7.65,4.43-4.43a8,8,0,0,1,10.37-.92,7.83,7.83,0,0,1,0,12.57,8,8,0,0,1-10.37-.92l-5.11-5.11-.25-.26-7.65-7.64-.25-.25-9-9a23.83,23.83,0,0,0-16.91-7H336.65a6.08,6.08,0,0,0-6.07,6.09v18.59a23.87,23.87,0,0,0,8.51,17.55c9.55,8.06,23.8,7.08,32.65-1.76l8.91-8.92,5.25,5.25a18.9,18.9,0,0,0,24.86,1.86,18.65,18.65,0,0,0,0-29.5Zm-47,24a13.07,13.07,0,0,1-22.34-9.25h0v-9.51A3.62,3.62,0,0,1,345,208.3h9.38a13.08,13.08,0,0,1,9.34,3.82L373,221.4Z"/><path class="cls-8" d="M360.64,224.58v-6.35a1.72,1.72,0,1,1,3.43,0v6.35a1.72,1.72,0,1,1-3.43,0Zm-13.48,0v-6.35a1.72,1.72,0,1,1,3.43,0v6.35a1.72,1.72,0,1,1-3.43,0Z"/><path class="cls-9" d="M353.9,227.36v-11.9a1.72,1.72,0,1,1,3.43,0v11.9a1.71,1.71,0,0,1-.86,1.48,1.69,1.69,0,0,1-1.71,0A1.71,1.71,0,0,1,353.9,227.36Z"/><path class="cls-8" d="M402,223.1v-3.39a.91.91,0,1,1,1.82,0v3.39a.91.91,0,1,1-1.82,0Zm-7.17,0v-3.39a.91.91,0,1,1,1.82,0v3.39a.91.91,0,1,1-1.82,0Z"/><path class="cls-9" d="M398.45,224.57v-6.34a.92.92,0,0,1,1.83,0v6.34a.93.93,0,0,1-.45.83.91.91,0,0,1-.93,0,.93.93,0,0,1-.45-.83Z"/><rect class="cls-10" x="368.66" y="223.21" width="9.58" height="10.81" transform="translate(-52.27 331.03) rotate(-45)"/><path class="cls-11" d="M479,384.5c0-44,0-47,.28-80.06,0-6.89-.28-23.94-.28-29.94a54.36,54.36,0,0,0,8-4c5.33-3.55,8-7,9-9a39,39,0,0,0,1.92-4.87,16.79,16.79,0,0,0,.86-5l1-50.65c.56-11-2.58-22-8.73-27.58s-12-5.88-12-7c0-85.88,3.4-117.5-6-132.88-11-18-19-28-44.49-33.2L89-.5H57c-16,0-68,14-57,90.79,0,.08,0,.23,0,.31V353.28c-8.08,61.13,22.91,96.23,91,87.22.14,0,13.86,0,14,0H411c8,0,14,0,24-2-.07-.46,11-3.53,11-4,0,.37,5.49-3.4,6.54-3.91a2.65,2.65,0,0,0,.75-.58A71.16,71.16,0,0,1,459,425.5c5-4,11.85-14.71,12-15C472,408.5,479,395.5,479,384.5Z"/></svg>